<svg width="24" height="24" viewBox="0 0 24 24" fill="none" xmlns="http://www.w3.org/2000/svg">
<g id="file(1) 1">
<rect width="24" height="24" rx="4" fill="white"/>
<g id="Group">
<path id="Vector" d="M18.2383 8.3711L14.0227 4.15535C13.9232 4.05585 13.7881 4 13.6475 4H6.13695C5.84389 4 5.60629 4.23761 5.60629 4.53067V19.4699C5.60629 19.7629 5.84389 20.0005 6.13695 20.0005H17.8632C18.1563 20.0005 18.3939 19.7629 18.3939 19.4699V8.74642C18.3938 8.60566 18.3378 8.47073 18.2383 8.3711ZM14.1781 5.81183L16.5821 8.21575H14.1781V5.81183ZM6.66762 18.9392V5.0612H13.1168V8.74628C13.1168 9.03934 13.3544 9.27695 13.6475 9.27695H17.3324V18.9391L6.66762 18.9392Z" fill="black"/>
<path id="Vector_2" d="M14.1951 10.4155H9.80492C9.51186 10.4155 9.27425 10.6531 9.27425 10.9462C9.27425 11.2393 9.51186 11.4769 9.80492 11.4769H14.1951C14.4882 11.4769 14.7258 11.2393 14.7258 10.9462C14.7258 10.6531 14.4882 10.4155 14.1951 10.4155Z" fill="black"/>
<path id="Vector_3" d="M14.1951 13.1504H9.80492C9.51186 13.1504 9.27425 13.388 9.27425 13.6811C9.27425 13.9741 9.51186 14.2117 9.80492 14.2117H14.1951C14.4882 14.2117 14.7258 13.9741 14.7258 13.6811C14.7258 13.388 14.4882 13.1504 14.1951 13.1504Z" fill="black"/>
<path id="Vector_4" d="M14.1951 15.8862H9.80492C9.51186 15.8862 9.27425 16.1238 9.27425 16.4169C9.27425 16.71 9.51186 16.9476 9.80492 16.9476H14.1951C14.4882 16.9476 14.7258 16.71 14.7258 16.4169C14.7258 16.1238 14.4882 15.8862 14.1951 15.8862Z" fill="black"/>
</g>
</g>
</svg>
