<svg width="30" height="30" viewBox="0 0 31 30" fill="none" xmlns="http://www.w3.org/2000/svg">
<g id="Icon_4">
<g id="Union">
<path d="M11.6949 4.0576C11.753 4.23351 11.9167 4.345 12.0922 4.345H12.0928C12.1364 4.345 12.1811 4.33772 12.2252 4.32315C12.4449 4.24976 12.5634 4.01165 12.4901 3.79148L12.3225 3.28727C12.2493 3.06708 12.0117 2.94832 11.7921 3.0217C11.5725 3.09509 11.454 3.3332 11.5272 3.55338L11.6949 4.0576Z" fill="#121617"/>
<path d="M11.4769 14.8775C11.3426 14.8772 11.2106 14.8122 11.1298 14.6921L9.17377 11.7788C9.07149 11.6265 9.07987 11.4253 9.19389 11.2819C9.30846 11.1385 9.50239 11.0864 9.6734 11.1525L12.1347 12.1122L12.2878 5.70751C12.2923 5.51702 12.4242 5.35343 12.6092 5.30917C12.7942 5.26491 12.9859 5.35119 13.0758 5.5187L16.3587 11.6377L18.7557 8.7541C18.8736 8.61236 19.0704 8.56418 19.2403 8.6359C19.4102 8.70761 19.5136 8.8824 19.4946 9.06616L19.1654 12.2691L21.7071 11.5867C21.886 11.5385 22.0749 11.6141 22.1721 11.7716C22.2694 11.9295 22.2521 12.1324 22.1291 12.2713L19.9495 14.7364C19.7958 14.91 19.5309 14.9263 19.3576 14.7722C19.1844 14.6181 19.1682 14.3526 19.3219 14.1789L20.5765 12.7604L18.7943 13.2388C18.6607 13.2747 18.5188 13.2422 18.4137 13.1526C18.3086 13.0629 18.2544 12.9273 18.2684 12.7895L18.5188 10.3502L16.604 12.6534C16.5146 12.7604 16.3788 12.8164 16.2397 12.8024C16.101 12.7884 15.9787 12.706 15.9127 12.5834L13.0859 7.31484L12.9562 12.7307C12.9529 12.8674 12.8836 12.994 12.7696 13.0702C12.6561 13.1464 12.5125 13.1615 12.3851 13.1122L10.6134 12.4214L11.8228 14.2226C11.9519 14.4153 11.9011 14.6764 11.7094 14.8058C11.6382 14.8538 11.557 14.8773 11.4769 14.8775Z" fill="#121617"/>
<path d="M12.2398 22.8509H13.0021V22.8504C13.2469 22.8504 13.5805 22.7546 13.9175 22.5876C14.1902 22.4526 14.5809 22.2111 14.8922 21.8318C15.2896 21.3472 15.4377 20.7769 15.3209 20.183L15.3201 20.1795L15.32 20.1791L15.32 20.1787L15.3198 20.1782C15.3185 20.1718 15.317 20.1652 15.3153 20.159L14.8676 18.4295C14.7268 17.8849 14.354 17.4373 13.8454 17.2003C12.712 16.6726 6.00269 13.7386 5.71767 13.6142C5.71624 13.6136 5.71481 13.613 5.71338 13.6125L5.70762 13.6103C5.70426 13.609 5.7009 13.6078 5.69755 13.6064C4.13402 13.0167 2.19965 12.4401 2.04696 12.3946L2.03746 12.3917C1.81559 12.3262 1.58253 12.4539 1.51714 12.6764C1.45176 12.8988 1.57918 13.1324 1.80106 13.1979L1.81001 13.2006L1.81076 13.2008C1.96346 13.2463 3.85969 13.8117 5.3924 14.389L5.6034 14.4814C6.80048 15.0054 12.4821 17.4926 13.4922 17.9628C13.7728 18.0933 13.9784 18.3404 14.0561 18.6407L14.5004 20.3573C14.5653 20.7013 14.4814 21.0094 14.2445 21.2985C13.8594 21.7685 13.1994 22.0106 13.0021 22.0106H12.2398C12.0084 22.0106 11.8206 22.1988 11.8206 22.4307C11.8206 22.6627 12.0084 22.8509 12.2398 22.8509Z" fill="#121617"/>
<path d="M13.4564 19.9365C13.4693 19.9377 13.4822 19.9382 13.495 19.9382H13.4956C13.7102 19.9382 13.8929 19.7741 13.9125 19.5561C13.9332 19.3248 13.7633 19.1208 13.533 19.0995C13.087 19.0586 12.5388 18.9914 12.3935 18.9516L11.0276 18.1522L11.2042 18.1309C11.4339 18.1034 11.5976 17.8939 11.5702 17.6636C11.5428 17.4334 11.3338 17.2692 11.1041 17.2967L10.4821 17.3712C10.479 17.3715 10.4759 17.3719 10.4728 17.3723C10.47 17.3727 10.4671 17.3732 10.4643 17.3736C10.4599 17.3744 10.4554 17.3753 10.4508 17.3762C10.1607 17.4339 9.9439 17.6608 9.89863 17.9538C9.85392 18.2446 9.98972 18.5242 10.2457 18.6676L11.9994 19.6945C12.0028 19.6962 12.0062 19.6984 12.0095 19.7001C12.0777 19.7376 12.2375 19.8251 13.4564 19.9365Z" fill="#121617"/>
<path d="M5.0744 17.221C5.07606 17.2213 5.07773 17.2214 5.07941 17.2216C5.08137 17.2217 5.08335 17.2218 5.08534 17.2219L5.08915 17.2221L5.09513 17.2222L5.10123 17.2222C5.11464 17.2222 5.12805 17.2216 5.14147 17.2205L6.87678 17.053C6.95446 17.0457 7.02879 17.0166 7.09083 16.9689L7.59382 16.584C7.77769 16.4434 7.8129 16.1796 7.67262 15.9952C7.53234 15.8109 7.26911 15.7756 7.08524 15.9162L6.67726 16.2283L5.09508 16.3807L1.94636 16.1739C1.71778 16.1583 1.51603 16.3342 1.50094 16.5656C1.48585 16.7969 1.66134 16.9969 1.89215 17.0121L5.0744 17.221Z" fill="#121617"/>
<path fill-rule="evenodd" clip-rule="evenodd" d="M5.43096 22.1439C5.43096 23.7187 6.70912 25 8.28012 25C9.85112 25 11.1293 23.7187 11.1293 22.1439C11.1293 20.5691 9.85112 19.2878 8.28012 19.2878C6.70912 19.2878 5.43096 20.5691 5.43096 22.1439ZM6.26928 22.1439C6.26928 21.0324 7.17131 20.1281 8.28012 20.1281C9.38893 20.1281 10.291 21.0324 10.291 22.1439C10.291 23.2554 9.38893 24.1596 8.28012 24.1596C7.17131 24.1596 6.26928 23.2554 6.26928 22.1439Z" fill="#121617"/>
<path d="M4.68654 22.9529H1.91954C1.68816 22.9529 1.50038 22.7652 1.50038 22.5327C1.50038 22.3002 1.68816 22.1125 1.91954 22.1125H4.68654C4.91792 22.1125 5.1057 22.3008 5.1057 22.5327C5.1057 22.7646 4.91792 22.9529 4.68654 22.9529Z" fill="#121617"/>
<path fill-rule="evenodd" clip-rule="evenodd" d="M22.7198 25C21.1488 25 19.8707 23.7187 19.8707 22.1439C19.8707 20.5691 21.1488 19.2878 22.7198 19.2878C24.2908 19.2878 25.569 20.5691 25.569 22.1439C25.569 23.7187 24.2908 25 22.7198 25ZM22.7198 20.1281C21.611 20.1281 20.709 21.0324 20.709 22.1439C20.709 23.2554 21.611 24.1596 22.7198 24.1596C23.8286 24.1596 24.7307 23.2554 24.7307 22.1439C24.7307 21.0324 23.8286 20.1281 22.7198 20.1281Z" fill="#121617"/>
<path d="M17.088 19.5561C17.1076 19.7741 17.2909 19.9382 17.5049 19.9382H17.5055C17.5184 19.9382 17.5312 19.9377 17.5441 19.9365C18.763 19.8251 18.9228 19.7376 18.991 19.7001C18.9944 19.6984 18.9977 19.6968 19.0011 19.6945L20.7548 18.6676C21.0102 18.5242 21.1466 18.2446 21.1019 17.9538C21.0572 17.6603 20.8403 17.4339 20.5497 17.3762C20.5397 17.374 20.529 17.3723 20.5184 17.3712L19.8964 17.2967C19.6667 17.2692 19.4577 17.4334 19.4303 17.6636C19.4023 17.8939 19.5666 18.1034 19.7963 18.1309L19.973 18.1522L18.6071 18.9516C18.4617 18.9914 17.9135 19.0586 17.4675 19.0995C17.2367 19.1208 17.0668 19.3248 17.088 19.5561Z" fill="#121617"/>
<path d="M25.8579 17.2205C25.8713 17.2216 25.8848 17.2222 25.8982 17.2222L25.8976 17.2227L25.9006 17.2227L25.9053 17.2226C25.9079 17.2225 25.9105 17.2224 25.9131 17.2223C25.9171 17.2221 25.9211 17.2219 25.925 17.2216L29.1072 17.0126C29.3386 16.9975 29.5135 16.7975 29.4985 16.5661C29.4834 16.3347 29.2827 16.1588 29.053 16.1745L25.9043 16.3812L24.3221 16.2283L23.9142 15.9162C23.7303 15.7751 23.4671 15.8109 23.3268 15.9952C23.1865 16.1796 23.2217 16.4434 23.4056 16.584L23.9086 16.9689C23.9706 17.0166 24.0449 17.0457 24.1226 17.053L25.8579 17.2205Z" fill="#121617"/>
<path d="M29.0804 22.9529H26.3134C26.082 22.9529 25.8943 22.7646 25.8943 22.5327C25.8943 22.3008 26.082 22.1125 26.3134 22.1125H29.0804C29.3118 22.1125 29.4996 22.3008 29.4996 22.5327C29.4996 22.7646 29.3118 22.9529 29.0804 22.9529Z" fill="#121617"/>
<path d="M17.9979 22.8509H18.7602C18.9916 22.8509 19.1793 22.6627 19.1793 22.4307C19.1793 22.1988 18.9916 22.0106 18.7602 22.0106H17.9979C17.8012 22.0106 17.1406 21.768 16.7555 21.2985C16.5185 21.0094 16.4347 20.7013 16.4995 20.3573L16.9438 18.6407C17.0215 18.3404 17.2272 18.0933 17.5077 17.9628C18.6126 17.4479 25.3074 14.5201 25.6076 14.389C27.197 13.7901 29.1788 13.2036 29.1989 13.1979C29.4213 13.1324 29.5482 12.8988 29.4828 12.6764C29.4174 12.4539 29.1849 12.3262 28.9625 12.3917L28.9529 12.3946L28.9527 12.3947C28.7978 12.4408 26.8644 13.0171 25.3024 13.6064C25.2957 13.6086 25.289 13.6114 25.2823 13.6142C24.9973 13.7386 18.2879 16.6726 17.1545 17.2003C16.646 17.4373 16.2732 17.8849 16.1323 18.4295L15.6847 20.159C15.6828 20.1655 15.6813 20.1725 15.6799 20.1791L15.6798 20.1795L15.6791 20.183C15.5617 20.7769 15.7104 21.3467 16.1078 21.8318C16.6527 22.4968 17.5558 22.8509 17.9979 22.8509Z" fill="#121617"/>
<path d="M7.97888 10.5906C8.0616 10.6841 8.17673 10.7318 8.29241 10.7318V10.7312C8.39134 10.7312 8.49082 10.6965 8.57074 10.6253C8.74343 10.4712 8.75908 10.2057 8.60539 10.032L8.15829 9.5278C8.00459 9.35468 7.73969 9.33899 7.56643 9.49306C7.39374 9.64712 7.37809 9.91268 7.53178 10.0864L7.97888 10.5906Z" fill="#121617"/>
<path d="M19.7488 7.87452C19.6969 7.87452 19.6443 7.865 19.5935 7.84427C19.3783 7.75799 19.2738 7.51373 19.3599 7.29803L19.5834 6.73779C19.6695 6.5221 19.9137 6.41733 20.1283 6.50361C20.3435 6.58989 20.448 6.83415 20.3619 7.04985L20.1384 7.61009C20.073 7.77424 19.9154 7.87452 19.7488 7.87452Z" fill="#121617"/>
<path d="M22.935 11.18C22.8277 11.18 22.7204 11.1391 22.6388 11.0567C22.475 10.8926 22.475 10.6264 22.6388 10.4623L22.8623 10.2382C23.0261 10.074 23.2916 10.074 23.4553 10.2382C23.6191 10.4023 23.6191 10.6685 23.4553 10.8326L23.2318 11.0567C23.1502 11.1385 23.0429 11.18 22.9356 11.18H22.935Z" fill="#121617"/>
<path d="M24.3059 9.71492C24.3328 9.72052 24.3607 9.72332 24.3881 9.72332C24.4149 9.72332 24.4429 9.72052 24.4697 9.71492C24.4965 9.70931 24.5228 9.70148 24.5479 9.69082C24.5736 9.68074 24.5977 9.6673 24.6206 9.65217C24.6311 9.64521 24.6413 9.63778 24.6511 9.62987C24.6627 9.62059 24.6737 9.61066 24.6843 9.60007C24.7033 9.58046 24.7212 9.55917 24.7363 9.5362C24.7514 9.51323 24.7642 9.48914 24.7748 9.46394C24.7854 9.43815 24.7933 9.41182 24.7989 9.38493C24.8044 9.35804 24.8072 9.33059 24.8072 9.30314C24.8072 9.19221 24.7625 9.08409 24.6843 9.00565C24.587 8.90817 24.4423 8.86334 24.3059 8.8908C24.2791 8.8964 24.2528 8.90424 24.2277 8.9149C24.2134 8.92082 24.1996 8.92744 24.1862 8.93476C24.1756 8.94058 24.1652 8.94685 24.155 8.95355C24.1321 8.96924 24.1109 8.98661 24.0913 9.00565C24.0723 9.02526 24.0544 9.04654 24.0393 9.06952C24.0243 9.09249 24.0114 9.11714 24.0008 9.14234C23.9902 9.16757 23.9823 9.19389 23.9768 9.22079C23.9717 9.24824 23.9689 9.27569 23.9689 9.30314C23.9689 9.32098 23.9701 9.33881 23.9723 9.35648C23.9735 9.36602 23.975 9.37551 23.9768 9.38493C23.9823 9.41182 23.9902 9.43815 24.0008 9.46394C24.0114 9.48914 24.0243 9.51323 24.0393 9.5362C24.0544 9.55917 24.0723 9.58046 24.0913 9.60007C24.1109 9.61967 24.1321 9.63704 24.155 9.65217C24.1779 9.6673 24.202 9.68074 24.2277 9.69082C24.2528 9.70148 24.2791 9.70931 24.3059 9.71492Z" fill="#121617"/>
</g>
</g>
</svg>
