<svg width="30" height="30" viewBox="0 0 31 30" fill="none" xmlns="http://www.w3.org/2000/svg">
<g id="Icon_3">
<g id="Union">
<path d="M4.82383 22.5931H6.46828C6.69371 22.5931 6.87666 22.3997 6.87666 22.1615C6.87666 21.9232 6.69371 21.7299 6.46828 21.7299H4.82329C4.45138 21.7299 3.39447 21.3011 2.78353 20.5156C2.38657 20.0051 2.24173 19.436 2.35336 18.8231L3.02311 16.0935C3.15652 15.5497 3.50991 15.1019 3.99236 14.8648C5.64182 14.0546 15.5559 9.48312 16.1643 9.20262L16.183 9.19397C20.9328 7.30463 22.604 6.86323 28.0916 6.86323C28.317 6.86323 28.5 6.66986 28.5 6.43162C28.5 6.19337 28.317 6 28.0916 6C22.5027 6 20.6775 6.48341 15.8857 8.39001C15.8792 8.39232 15.8726 8.3952 15.8661 8.39806L15.7839 8.43597L15.7833 8.43626L15.7802 8.43768C14.7714 8.90298 5.26777 13.2866 3.64822 14.0816C2.94362 14.4275 2.42741 15.0818 2.23248 15.8766L1.55945 18.6188C1.55761 18.6256 1.55616 18.6328 1.55477 18.6397L1.55401 18.6435C1.3912 19.5137 1.59811 20.3504 2.15297 21.0634C2.92891 22.0614 4.20254 22.5931 4.82383 22.5931Z" fill="#474747"/>
<path d="M3.66565 17.5662C3.68361 17.7918 3.86222 17.9621 4.0724 17.9621C4.08383 17.9621 4.09527 17.9616 4.1067 17.9604C5.30029 17.8551 6.00762 17.7423 6.20908 17.626C6.21235 17.6243 6.21562 17.6226 6.21889 17.6203L8.85816 15.9911C9.16201 15.8121 9.32373 15.4628 9.27091 15.0985C9.217 14.7325 8.96053 14.4493 8.6164 14.3774C8.59843 14.3734 8.58046 14.3711 8.56195 14.3699L7.14675 14.2796C6.92186 14.2652 6.72801 14.4465 6.7144 14.6841C6.70079 14.9218 6.87231 15.1267 7.09719 15.1411L8.46339 15.2286C8.46448 15.2314 8.46557 15.2337 8.46557 15.2337L8.46384 15.2349L8.46012 15.2372C8.45685 15.2389 8.45359 15.2406 8.45032 15.2429L5.82738 16.8618C5.63843 16.928 4.76121 17.0362 4.03864 17.1001C3.81375 17.1202 3.64713 17.3285 3.66565 17.5662Z" fill="#474747"/>
<path d="M16.6644 13.6667C16.6774 13.6678 16.6905 13.6684 16.7036 13.6684H16.7243L22.9111 13.3375L22.9126 13.3374L22.9134 13.3374C22.9169 13.3371 22.9204 13.3369 22.924 13.3366C22.9287 13.3362 22.9335 13.3358 22.9383 13.3352C22.9443 13.3346 22.9503 13.334 22.9563 13.3329L28.1488 12.5502C28.372 12.5168 28.5272 12.2982 28.4956 12.0622C28.4641 11.8263 28.2577 11.6617 28.0339 11.6956L23.3919 12.3954L23.9402 8.97931C23.9778 8.74451 23.828 8.52122 23.6059 8.48152C23.3832 8.4418 23.1724 8.60006 23.1349 8.83486L22.5479 12.4927L16.7128 12.8046L14.2494 12.5542L13.5851 12.0185C13.406 11.874 13.1495 11.9103 13.0128 12.0996C12.8756 12.289 12.9105 12.56 13.0896 12.7045L13.8465 13.3151C13.9069 13.364 13.9794 13.3939 14.055 13.4014L16.6644 13.6667Z" fill="#474747"/>
<path fill-rule="evenodd" clip-rule="evenodd" d="M7.47999 21.7063C7.47999 24.0738 9.30249 26 11.5426 26C13.7828 26 15.6053 24.0738 15.6053 21.7063C15.6053 19.3387 13.7828 17.4125 11.5426 17.4125C9.30249 17.4125 7.47999 19.3387 7.47999 21.7063ZM8.29677 21.7063C8.29677 19.8146 9.75281 18.2758 11.5426 18.2758C13.3325 18.2758 14.7885 19.8146 14.7885 21.7063C14.7885 23.5979 13.3325 25.1368 11.5426 25.1368C9.75281 25.1368 8.29677 23.5979 8.29677 21.7063Z" fill="#474747"/>
<path d="M28.0916 22.7548H16.5658C16.3404 22.7548 16.1574 22.5614 16.1574 22.3232C16.1574 22.0849 16.3404 21.8916 16.5658 21.8916H28.0916C28.317 21.8916 28.5 22.0849 28.5 22.3232C28.5 22.5614 28.317 22.7548 28.0916 22.7548Z" fill="#474747"/>
<path d="M25.3636 16.6961H24.5827C24.3573 16.6961 24.1744 16.5027 24.1744 16.2644C24.1744 16.0262 24.3573 15.8328 24.5827 15.8328H25.3636C25.589 15.8328 25.772 16.0262 25.772 16.2644C25.772 16.5027 25.589 16.6961 25.3636 16.6961Z" fill="#474747"/>
<path d="M21.5914 16.6961H23.2966C23.522 16.6961 23.705 16.5027 23.705 16.2644C23.705 16.0262 23.522 15.8328 23.2966 15.8328H22.468L22.984 15.3247C23.149 15.1624 23.1577 14.889 23.0042 14.7146C22.8506 14.5403 22.592 14.5311 22.427 14.6934L21.2699 15.8328H19.2105C18.9851 15.8328 18.8021 16.0262 18.8021 16.2644C18.8021 16.5027 18.9851 16.6961 19.2105 16.6961H20.3933L18.9317 18.1353C18.7668 18.2976 18.758 18.571 18.9116 18.7454C18.9922 18.8369 19.1011 18.8829 19.2105 18.8829V18.8823C19.3102 18.8823 19.4104 18.8444 19.4888 18.7667L21.5914 16.6961Z" fill="#474747"/>
<path d="M26.9427 18.4225H21.9876C21.7621 18.4225 21.5792 18.2292 21.5792 17.9909C21.5792 17.7527 21.7621 17.5593 21.9876 17.5593H26.9427C27.1681 17.5593 27.3511 17.7527 27.3511 17.9909C27.3511 18.2292 27.1681 18.4225 26.9427 18.4225Z" fill="#474747"/>
<path d="M20.1907 20.0915H23.73C23.9555 20.0915 24.1384 19.8981 24.1384 19.6598C24.1384 19.4216 23.9555 19.2282 23.73 19.2282H20.1907C19.9652 19.2282 19.7823 19.4216 19.7823 19.6598C19.7823 19.8981 19.9652 20.0915 20.1907 20.0915Z" fill="#474747"/>
<path d="M25.0369 20.0915H24.928C24.7025 20.0915 24.5196 19.8981 24.5196 19.6598C24.5196 19.4216 24.7025 19.2282 24.928 19.2282H25.0369C25.2623 19.2282 25.4453 19.4216 25.4453 19.6598C25.4453 19.8981 25.2623 20.0915 25.0369 20.0915Z" fill="#474747"/>
<path d="M17.577 20.4943C17.4664 20.4943 17.3564 20.4471 17.2759 20.3544C17.1234 20.1789 17.1348 19.9056 17.3009 19.7444L17.9543 19.1114C18.1204 18.9502 18.3791 18.9623 18.5315 19.1379C18.684 19.3134 18.6725 19.5867 18.5065 19.7479L17.853 20.3809C17.7746 20.4569 17.6755 20.4943 17.577 20.4943Z" fill="#474747"/>
<path d="M17.2748 18.3966C17.3554 18.4899 17.4659 18.5376 17.577 18.5376H17.5764C17.675 18.5376 17.773 18.5008 17.8514 18.4254L18.6889 17.6197C18.8561 17.4597 18.868 17.1864 18.7161 17.0103C18.5647 16.8336 18.3061 16.8209 18.1395 16.9815L17.302 17.7872C17.1348 17.9472 17.1229 18.2205 17.2748 18.3966Z" fill="#474747"/>
</g>
</g>
</svg>
