<svg width="30" height="30" viewBox="0 0 31 30" fill="none" xmlns="http://www.w3.org/2000/svg">
<g id="Icon_2">
<g id="Vector">
<path d="M8.95291 26C7.36626 26 6.07538 24.684 6.07538 23.0666C6.07538 21.4491 7.36626 20.1332 8.95291 20.1332C10.5396 20.1332 11.8304 21.4491 11.8304 23.0666C11.8304 24.684 10.5396 26 8.95291 26ZM8.95291 20.9963C7.83305 20.9963 6.92204 21.925 6.92204 23.0666C6.92204 24.2082 7.83305 25.1369 8.95291 25.1369C10.0728 25.1369 10.9838 24.2082 10.9838 23.0666C10.9838 21.925 10.0728 20.9963 8.95291 20.9963Z" fill="#474747"/>
<path d="M23.3299 25.9885C21.7494 25.9885 20.4636 24.6777 20.4636 23.0666C20.4636 21.4554 21.7494 20.1447 23.3299 20.1447C24.9103 20.1447 26.1961 21.4554 26.1961 23.0666C26.1961 24.6777 24.9103 25.9885 23.3299 25.9885ZM23.3299 21.0083C22.2162 21.0083 21.3103 21.9319 21.3103 23.0671C21.3103 24.2024 22.2162 25.1259 23.3299 25.1259C24.4435 25.1259 25.3494 24.2024 25.3494 23.0671C25.3494 21.9319 24.4435 21.0083 23.3299 21.0083Z" fill="#474747"/>
<path d="M3.68614 20.8014C3.46996 20.8014 3.28482 20.6328 3.26507 20.4089C3.24362 20.1719 3.41521 19.9619 3.64833 19.94C4.09875 19.898 4.65247 19.8289 4.79922 19.7881L6.17872 18.967L6.00036 18.9451C5.76837 18.9169 5.60243 18.7017 5.63008 18.4652C5.65774 18.2287 5.86828 18.0596 6.10083 18.0878L6.72905 18.1643C6.73978 18.1654 6.7505 18.1672 6.76066 18.1695C7.05417 18.2287 7.27318 18.4612 7.31833 18.7627C7.36349 19.0613 7.22576 19.3485 6.96781 19.4964L5.19659 20.5511C5.19321 20.5534 5.18643 20.5568 5.18643 20.5568C5.11757 20.5954 4.95614 20.6851 3.72509 20.7996C3.71211 20.8008 3.69913 20.8014 3.68614 20.8014ZM12.1629 18.0118C12.1494 18.0118 12.1359 18.0112 12.1223 18.0101L10.3697 17.838C10.2913 17.8305 10.2162 17.8006 10.1535 17.7517L9.64553 17.3564C9.45983 17.212 9.4237 16.941 9.56594 16.7517C9.70762 16.5624 9.97347 16.5261 10.1592 16.6705L10.5712 16.991L12.1725 17.1481L15.9611 16.9531L16.3353 14.7038C16.3743 14.469 16.5927 14.3108 16.8236 14.3505C17.0538 14.3902 17.2091 14.6135 17.1701 14.8482L16.8331 16.8725L20.2452 16.472L20.3417 14.6848C20.3547 14.4466 20.5545 14.2648 20.7876 14.2774C21.0213 14.2906 21.1997 14.4943 21.1873 14.732L21.0975 16.3926L22.4674 16.2913L23.7086 14.7234C23.8554 14.5381 24.1218 14.5087 24.3041 14.6583C24.4859 14.8079 24.5146 15.0795 24.3679 15.2654L23.011 16.9789C22.9376 17.0722 22.8292 17.1297 22.7124 17.1383L20.6883 17.2879L16.3731 17.7943C16.3686 17.7943 16.3641 17.7955 16.3596 17.7955C16.3528 17.796 16.346 17.7966 16.3393 17.7966L12.185 18.0107C12.1776 18.0107 12.1703 18.0118 12.1629 18.0118Z" fill="#474747"/>
<path d="M19.2992 23.8979H12.5823C12.3486 23.8979 12.159 23.7045 12.159 23.4663C12.159 23.2281 12.3486 23.0347 12.5823 23.0347H19.2992C19.5328 23.0347 19.7225 23.2281 19.7225 23.4663C19.7225 23.7045 19.5328 23.8979 19.2992 23.8979Z" fill="#474747"/>
<path d="M4.9544 23.7933H4.1845C3.73803 23.7933 2.82589 23.4297 2.27555 22.7467C1.87424 22.2484 1.72409 21.6632 1.84263 21.0533C1.84432 21.0452 1.84601 21.0366 1.84827 21.0285L2.30039 19.2522C2.44263 18.6929 2.81911 18.2332 3.33276 17.9898C3.79729 17.77 5.24114 17.1181 7.62365 16.0536C7.83757 15.958 8.08762 16.057 8.18132 16.2757C8.27502 16.4937 8.17793 16.7486 7.96344 16.8442C5.61988 17.8914 4.14217 18.5583 3.68948 18.7729C3.40613 18.907 3.19842 19.1607 3.11996 19.4692L2.67123 21.2322C2.60575 21.5855 2.69042 21.902 2.92974 22.1989C3.31864 22.6811 3.98525 22.9302 4.1845 22.9302H4.9544C5.18808 22.9302 5.37773 23.1236 5.37773 23.3618C5.37773 23.6 5.18808 23.7933 4.9544 23.7933Z" fill="#474747"/>
<path d="M27.2206 22.978C27.0208 22.978 26.9503 22.947 26.9125 22.9308C26.751 22.8601 26.6466 22.7007 26.6466 22.5252C26.6466 22.287 26.8363 22.0936 27.0699 22.0936C27.1168 22.0936 27.1619 22.1017 27.2043 22.1161C27.3764 22.1189 27.8111 22.0672 27.9476 22.0125L27.9505 22.0102C28.1085 21.8922 28.5414 21.49 28.6301 21.0573C28.7187 20.6246 28.5527 19.3593 28.419 18.6095C27.946 17.7919 26.7437 15.7768 26.2758 15.2635C26.1443 15.1197 26.0867 14.9396 26.1126 14.7566C26.1527 14.4724 26.37 14.2802 26.6235 14.1122C24.7823 13.7399 21.6298 13.6041 19.3196 13.6041C15.7754 13.6041 15.1139 13.8578 11.935 15.0777L11.8684 15.103C11.7803 15.1416 11.0544 15.4609 9.90862 15.9719C9.6947 16.0674 9.44465 15.9678 9.35095 15.7492C9.25725 15.5311 9.3549 15.2762 9.56939 15.1807C10.7903 14.6364 11.5353 14.3095 11.5427 14.3061C11.5489 14.3032 11.5551 14.3009 11.5607 14.2986L11.6364 14.2698C14.856 13.0344 15.6208 12.741 19.3196 12.741C21.9307 12.741 25.612 12.9153 27.3917 13.4079C27.71 13.4959 27.8878 13.6645 27.9206 13.9085C27.9725 14.2963 27.6287 14.504 27.2968 14.7048C27.2308 14.7451 27.1315 14.8049 27.0502 14.8602C27.7603 15.7647 29.1251 18.1296 29.1872 18.2378C29.212 18.281 29.2289 18.3276 29.238 18.3771C29.2769 18.5894 29.615 20.4744 29.4592 21.2345C29.2961 22.0292 28.6069 22.5885 28.4636 22.6972C28.3603 22.7858 28.1729 22.8808 27.675 22.9446C27.4752 22.97 27.329 22.978 27.2206 22.978Z" fill="#474747"/>
<path d="M27.3481 18.6983C27.2663 18.6983 27.1833 18.6742 27.1099 18.6235L25.4381 17.4624C25.2586 17.3375 25.201 17.0947 25.3043 16.9002L25.7344 16.09C25.8456 15.8806 26.1024 15.8023 26.3084 15.9162C26.5139 16.0296 26.5907 16.2914 26.4789 16.5014L26.2305 16.9687L27.5863 17.9106C27.7794 18.0447 27.8296 18.3134 27.6975 18.5102C27.6157 18.6327 27.483 18.6983 27.3481 18.6983Z" fill="#474747"/>
<path d="M4.99342 15.851C4.7778 15.851 4.59379 15.6841 4.57234 15.4608C4.45155 14.1898 5.50932 13.6121 6.08505 13.4843C6.31365 13.4337 6.53886 13.5816 6.58853 13.8146C6.6382 14.0471 6.49427 14.2761 6.2668 14.3273C6.17028 14.3497 5.33773 14.5695 5.41449 15.3774C5.43707 15.6145 5.26661 15.8257 5.03406 15.8487C5.01995 15.8498 5.00697 15.851 4.99342 15.851Z" fill="#474747"/>
<path d="M7.99171 13.4359C7.91438 13.4359 7.83649 13.4146 7.7665 13.3697C7.56838 13.2426 7.50911 12.9761 7.63385 12.7748C7.86922 12.3933 7.97026 11.9536 7.92567 11.5043C7.9093 11.3403 7.87318 11.1786 7.81842 11.0238C7.7394 10.7994 7.85342 10.5525 8.07299 10.4714C8.29312 10.3908 8.53527 10.5071 8.61485 10.7309C8.69331 10.9524 8.74467 11.1832 8.76782 11.4168C8.8316 12.0601 8.6871 12.6884 8.35013 13.2339C8.26941 13.364 8.13225 13.4359 7.99171 13.4359Z" fill="#474747"/>
<path d="M2.60522 16.1303C2.51943 16.1303 2.43307 16.1038 2.358 16.0492C1.57512 15.4743 1.51416 14.4507 1.50964 14.2706C1.44981 13.6123 1.67107 12.9592 2.10118 12.4776C1.82291 12.0771 1.65244 11.6128 1.60334 11.1145C1.5277 10.3515 1.74784 9.60404 2.22366 9.00965C2.69949 8.41525 3.37399 8.04584 4.12245 7.96874C4.16534 7.96413 4.20824 7.96068 4.25114 7.95838C4.5836 6.87546 5.52791 6.07277 6.65679 5.95654C6.88878 5.93237 7.09706 6.10557 7.12077 6.34264C7.14447 6.57971 6.97458 6.79146 6.74203 6.81562C5.86714 6.90596 5.15086 7.58494 4.99959 8.46704C4.96234 8.68512 4.76817 8.83933 4.55199 8.82322C4.43515 8.81458 4.31944 8.81574 4.20768 8.82782C3.68387 8.88191 3.21256 9.14027 2.87954 9.55628C2.54652 9.97173 2.39243 10.4948 2.44549 11.0288C2.49064 11.4816 2.67804 11.8936 2.98848 12.221C3.07315 12.3102 3.11604 12.4327 3.10588 12.557C3.09572 12.6807 3.03364 12.7947 2.93542 12.8683C2.52564 13.1767 2.30268 13.6883 2.35348 14.2038C2.35518 14.2188 2.35574 14.2338 2.35574 14.2482C2.35574 14.2533 2.36703 14.9933 2.85301 15.3495C3.04267 15.4887 3.08556 15.7586 2.94897 15.9519C2.866 16.0693 2.73674 16.1303 2.60522 16.1303Z" fill="#474747"/>
<path d="M4.62252 9.91738C4.43061 9.91738 4.25676 9.78388 4.21104 9.58537C4.19298 9.50769 4.03945 8.8126 4.17322 8.28437C4.23136 8.05364 4.46278 7.91496 4.68912 7.97423C4.91547 8.0335 5.0515 8.26884 4.99336 8.50015C4.93183 8.74297 4.98659 9.17338 5.03569 9.388C5.08875 9.61989 4.94764 9.85178 4.72017 9.90645C4.68743 9.9145 4.65469 9.91738 4.62252 9.91738Z" fill="#474747"/>
<path d="M2.68482 12.9508C2.56121 12.9508 2.43816 12.8956 2.35462 12.7897C2.20843 12.6039 2.23722 12.3323 2.41953 12.1832C2.72828 11.9306 3.02913 11.769 3.42537 11.6441C3.64889 11.5739 3.88595 11.7011 3.95482 11.9289C4.02368 12.1568 3.89894 12.3984 3.67542 12.4686C3.38303 12.5607 3.1725 12.6729 2.94954 12.8559C2.87109 12.9198 2.77739 12.9508 2.68482 12.9508Z" fill="#474747"/>
<path d="M7.60624 11.3588C7.3782 11.3588 7.15243 11.3317 6.9306 11.2771C6.70313 11.2213 6.56315 10.9882 6.6179 10.7563C6.67265 10.5244 6.90125 10.3817 7.12872 10.4376C7.3528 10.4922 7.58366 10.5083 7.81565 10.4842C8.94114 10.3679 9.7641 9.34026 9.65065 8.1929C9.62694 7.95583 9.79684 7.74408 10.0294 7.71992C10.2619 7.69575 10.4697 7.86895 10.4934 8.10601C10.6542 9.72693 9.49148 11.1787 7.90144 11.3427C7.80323 11.353 7.70389 11.3588 7.60624 11.3588Z" fill="#474747"/>
<path d="M5.41331 7.36675C5.25358 7.36675 5.10061 7.27411 5.02893 7.11702C4.41086 5.76079 5.25132 4.53978 5.28744 4.48856C5.42347 4.29465 5.6882 4.25035 5.87842 4.38902C6.06807 4.52769 6.11153 4.79583 5.97719 4.98974C5.95123 5.02772 5.3913 5.86206 5.79714 6.75336C5.89535 6.96972 5.80334 7.22635 5.59168 7.32647C5.53411 7.35409 5.47258 7.36675 5.41331 7.36675Z" fill="#474747"/>
<path d="M6.24133 4.03333C6.17021 4.03333 6.09796 4.01491 6.03135 3.97636C5.82815 3.85783 5.75816 3.59429 5.87387 3.38772L5.96926 3.2174C6.08554 3.01025 6.34406 2.9389 6.54669 3.05686C6.74989 3.17539 6.81988 3.43893 6.70417 3.6455L6.60878 3.81582C6.53089 3.95507 6.38865 4.03333 6.24133 4.03333Z" fill="#474747"/>
<path d="M9.26616 16.7346C9.21009 16.7346 9.15295 16.7197 9.09848 16.6879L4.12478 13.7786C3.92399 13.6609 3.83642 13.3598 3.9288 13.1055C4.02171 12.8512 4.25935 12.7402 4.46013 12.8579L9.43383 15.7673C9.63462 15.885 9.72219 16.186 9.62928 16.4403C9.56146 16.6257 9.41728 16.7346 9.26616 16.7346Z" fill="#474747"/>
</g>
</g>
</svg>
