<svg width="30" height="30" viewBox="0 0 31 30" fill="none" xmlns="http://www.w3.org/2000/svg">
<g id="Icon_5">
<path id="Vector" d="M15.7023 7C12.2322 7 9.1698 8.93447 7.74376 11.867L6.75177 9.87705L5.5 10.4596L7.56012 14.591L11.8365 12.6006L11.2334 11.3914L9.00568 12.428C10.2091 9.96544 12.7845 8.34231 15.7023 8.34231C19.7875 8.34231 23.111 11.5533 23.111 15.5C23.111 19.4467 19.7875 22.6578 15.7023 22.6578C13.2969 22.6578 11.0319 21.5225 9.64378 19.6209L8.50817 20.3947C10.1568 22.6522 12.8461 24 15.7023 24C20.5532 24 24.5 20.1869 24.5 15.5C24.5 10.8131 20.5533 7 15.7023 7Z" fill="#474747"/>
</g>
</svg>
