<svg width="30" height="30" viewBox="0 0 29 22" fill="none" xmlns="http://www.w3.org/2000/svg">
<g id="Layer_2" clip-path="url(#clip0_104_97)">
<path id="Vector" d="M6.48537 22.0001H4.41106C3.43048 22.0001 2.66268 21.2594 2.66268 20.3133V17.602C2.66268 17.3697 2.85182 17.1812 3.08486 17.1812C3.3179 17.1812 3.50704 17.3697 3.50704 17.602V20.3133C3.50704 20.7875 3.90445 21.1584 4.41106 21.1584H6.48537C6.95314 21.1584 7.25542 20.8268 7.25542 20.3133V19.9486C7.25542 19.7163 7.44456 19.5278 7.6776 19.5278C7.91064 19.5278 8.09978 19.7163 8.09978 19.9486V20.3133C8.09978 21.2908 7.42091 22.0001 6.48537 22.0001Z" fill="#474747"/>
<path id="Vector_2" d="M24.6846 22.0001H22.6103C21.6461 22.0001 20.9188 21.2751 20.9188 20.3134V19.9486C20.9188 19.7163 21.1079 19.5278 21.341 19.5278C21.574 19.5278 21.7632 19.7163 21.7632 19.9486V20.3134C21.7632 20.8032 22.1195 21.1584 22.6103 21.1584H24.6846C25.1524 21.1584 25.4541 20.8268 25.4541 20.3134V17.7165C25.4541 17.4842 25.6433 17.2957 25.8763 17.2957C26.1093 17.2957 26.2985 17.4842 26.2985 17.7165V20.3134C26.2985 21.2909 25.6196 22.0001 24.6846 22.0001Z" fill="#474747"/>
<path id="Vector_3" d="M22.3491 19.9935H6.78314C6.16338 19.9935 5.47946 19.7915 4.74993 19.3925C4.74486 19.3897 4.74036 19.3869 4.73586 19.3841L4.24163 19.0884C2.7353 18.2613 1.79975 16.7081 1.79975 15.032V13.6544C1.79975 12.8677 2.09077 12.0945 2.64073 11.4167C2.64298 11.4139 2.64467 11.4116 2.64692 11.4094L3.6517 10.2277H1.96693C1.1586 10.2277 0.500565 9.5717 0.500565 8.76592V8.23566C0.500565 7.50564 1.09668 6.91141 1.82902 6.91141H3.63257C4.14143 6.91141 4.5805 7.24528 4.70208 7.72391L4.74205 7.86812C4.74318 7.87205 4.7443 7.87542 4.74487 7.87935C4.75838 7.93377 4.8051 7.97754 4.8248 7.98203H4.9492L5.06966 7.7458C5.07079 7.74355 5.07248 7.74075 5.0736 7.7385C6.29848 5.45473 8.65368 4.03564 11.22 4.03564H13.753C13.9861 4.03564 14.1752 4.22418 14.1752 4.45649C14.1752 4.68879 13.9861 4.87733 13.753 4.87733H11.22C8.96721 4.87733 6.8991 6.12415 5.82058 8.13185L5.58472 8.59366C5.51267 8.7345 5.36744 8.82372 5.2087 8.82372H4.82255C4.41163 8.82372 4.03617 8.51454 3.92753 8.08752L3.88756 7.94331C3.88644 7.93995 3.88531 7.93602 3.88475 7.93209C3.85773 7.82323 3.75922 7.75309 3.63313 7.75309H1.82846C1.56164 7.75309 1.34436 7.96969 1.34436 8.23566V8.76592C1.34436 9.10765 1.62356 9.38596 1.96637 9.38596H4.42795C4.57487 9.38596 4.71053 9.46172 4.78765 9.58629C4.8642 9.71086 4.87096 9.86629 4.80453 9.99647L4.6047 10.3898C4.5895 10.419 4.57149 10.4465 4.5501 10.4717L3.29313 11.9492C2.86814 12.4744 2.64354 13.0636 2.64354 13.6533V15.0309C2.64354 16.4023 3.41416 17.6749 4.6548 18.3533C4.65987 18.3561 4.66437 18.3589 4.66887 18.3617L5.16254 18.6574C5.76372 18.9851 6.30861 19.1512 6.78314 19.1512H22.3491C22.8169 19.1512 23.3399 18.9902 23.9478 18.6591L24.3914 18.3836C24.3981 18.3797 24.4049 18.3757 24.4116 18.3718C25.6112 17.7159 26.3565 16.4359 26.3565 15.0314V13.6539C26.3565 12.9934 26.1538 12.3947 25.7699 11.9217L24.5653 10.4734C24.5439 10.4476 24.5259 10.4196 24.5113 10.3898L24.3154 9.99142C24.2512 9.86124 24.2591 9.70693 24.3362 9.58348C24.4133 9.46003 24.549 9.3854 24.6942 9.3854H27.2323C27.4654 9.3854 27.6551 9.1963 27.6551 8.964V8.06564C27.6551 7.89281 27.5144 7.75253 27.341 7.75253H25.5374C25.4879 7.75253 25.3258 7.76375 25.2869 7.90572L25.2475 8.08808C25.247 8.09201 25.2458 8.09594 25.2447 8.09987C25.1411 8.51903 24.764 8.8226 24.348 8.8226H23.9281C23.7694 8.8226 23.6241 8.73394 23.5521 8.5931L23.3157 8.13073C23.1434 7.80977 22.9475 7.50508 22.7336 7.22395C22.5929 7.03878 22.6289 6.77505 22.8147 6.63421C23.0004 6.49393 23.265 6.52984 23.4063 6.71501C23.6478 7.03261 23.869 7.37658 24.0626 7.73738C24.0637 7.73963 24.0649 7.74243 24.0666 7.74468L24.1876 7.98091H24.3486C24.37 7.98091 24.4116 7.94724 24.4246 7.90123L24.464 7.71999C24.4651 7.71606 24.4657 7.71213 24.4668 7.7082C24.585 7.23125 25.0156 6.91085 25.538 6.91085H27.3415C27.9804 6.91085 28.5 7.42876 28.5 8.06564V8.964C28.5 9.66035 27.9315 10.2271 27.2329 10.2271H25.4569L26.4229 11.3881C26.9329 12.016 27.2008 12.7982 27.2008 13.6533V15.0309C27.2008 16.7389 26.2917 18.2983 24.8282 19.1035L24.384 19.379C24.3773 19.383 24.3705 19.3869 24.3638 19.3908C23.6241 19.7954 22.965 19.9918 22.3491 19.9918V19.9935ZM19.7148 5.07653C19.681 5.07653 19.6472 5.0726 19.6129 5.06419C19.2909 4.98451 18.9571 4.93232 18.6199 4.90875C18.3874 4.89248 18.2118 4.69104 18.2281 4.45929C18.2444 4.22755 18.446 4.05304 18.679 4.06875C19.0646 4.09569 19.4468 4.15573 19.8161 4.24663C20.0424 4.30274 20.1803 4.53056 20.1245 4.75613C20.0767 4.94803 19.9044 5.07597 19.7153 5.07597L19.7148 5.07653Z" fill="#474747"/>
<path id="Vector_4" d="M18.8867 18.1708H10.2833C9.82113 18.1708 8.56642 17.915 8.40374 17.8813C7.91176 17.7893 7.58077 17.4694 7.55938 17.066C7.53912 16.6788 7.81663 16.3427 8.26752 16.2097C8.28159 16.2058 8.29623 16.2018 8.3103 16.1996C8.39304 16.1844 10.3486 15.8253 11.3455 15.8253H17.8251C18.8225 15.8253 20.7792 16.1934 20.8619 16.2091C20.876 16.2119 20.8895 16.2153 20.903 16.2192C21.3534 16.3522 21.6309 16.6816 21.6112 17.0592C21.5903 17.4515 21.2605 17.764 20.7702 17.8572C20.594 17.8964 19.3494 18.1714 18.8867 18.1714V18.1708ZM8.4696 17.0295C8.4938 17.0385 8.5242 17.0475 8.56192 17.0548C8.56529 17.0553 8.56811 17.0559 8.57149 17.0564C9.08148 17.1619 9.99732 17.3297 10.2833 17.3297H18.8867C19.1704 17.3297 20.0829 17.1485 20.5917 17.034C20.5974 17.0329 20.6024 17.0317 20.6081 17.0306C20.6193 17.0284 20.63 17.0261 20.6402 17.0239C20.2951 16.9605 18.6486 16.667 17.8245 16.667H11.3449C10.482 16.667 8.71671 16.9812 8.48818 17.0228C8.48142 17.025 8.47523 17.0273 8.4696 17.0295ZM22.8057 15.8562C22.4809 15.8562 22.1651 15.7047 21.9664 15.4376L21.7277 15.1172C21.5588 14.8911 21.4907 14.6127 21.5352 14.3344C21.5796 14.0561 21.7316 13.8126 21.9624 13.6498L24.3672 11.9536C24.5574 11.8195 24.8209 11.8644 24.9554 12.054C25.0899 12.2437 25.0449 12.5063 24.8546 12.6404L22.4499 14.3367C22.3908 14.3782 22.3739 14.436 22.3688 14.4663C22.3638 14.4971 22.3621 14.5566 22.4054 14.615L22.6441 14.9354C22.6931 15.001 22.7786 15.0297 22.8569 15.0072L24.3587 14.5796C24.7128 14.4786 25.0077 14.2317 25.1682 13.9018C25.2701 13.6925 25.5222 13.6055 25.7322 13.7071C25.9422 13.8086 26.0294 14.06 25.9275 14.2693C25.6624 14.8147 25.1749 15.2227 24.5901 15.3893L23.0882 15.8169C22.9948 15.8433 22.8997 15.8562 22.8051 15.8562H22.8057ZM6.36377 15.8562C6.26921 15.8562 6.17407 15.8433 6.08063 15.8169L4.5788 15.3893C3.99395 15.2227 3.50647 14.8147 3.24134 14.2693C3.13946 14.06 3.22727 13.8086 3.43667 13.7071C3.64663 13.6055 3.89881 13.6931 4.0007 13.9018C4.16113 14.2317 4.45665 14.4792 4.81016 14.5796L6.31199 15.0072C6.39079 15.0297 6.47635 15.0005 6.52476 14.9354L6.76344 14.615C6.80678 14.5572 6.80509 14.4971 6.80002 14.4663C6.79496 14.436 6.77807 14.3782 6.71897 14.3367L4.31424 12.6404C4.12398 12.5063 4.07894 12.2437 4.21348 12.054C4.34801 11.8644 4.61145 11.8195 4.80171 11.9536L7.20644 13.6498C7.43723 13.8126 7.58922 14.0555 7.63369 14.3344C7.67816 14.6127 7.61004 14.8911 7.44117 15.1172L7.2025 15.4376C7.00323 15.7047 6.68801 15.8562 6.36321 15.8562H6.36377ZM11.8853 10.6276C11.8763 10.6276 11.8667 10.6276 11.8577 10.6265C8.64523 10.4195 7.02519 9.8819 6.60526 9.72198L6.59963 9.71973C6.509 9.68887 6.43076 9.62715 6.37897 9.54466C6.31311 9.43973 6.29679 9.3118 6.3345 9.19396C6.65648 8.18394 7.26836 7.3069 8.10427 6.65712C8.28834 6.51403 8.55347 6.54714 8.69701 6.73006C8.84055 6.91355 8.80734 7.17784 8.62384 7.32093C8.03166 7.78105 7.57346 8.37752 7.283 9.0621C7.97255 9.27364 9.43948 9.62659 11.9129 9.78595C12.1454 9.8011 12.3221 10.0009 12.3069 10.2332C12.2923 10.4559 12.1065 10.6271 11.8859 10.6271L11.8853 10.6276ZM6.67506 9.73825C6.67506 9.73825 6.67506 9.73825 6.67562 9.73825C6.67562 9.73825 6.67562 9.73825 6.67506 9.73825ZM6.6745 9.73825C6.6745 9.73825 6.6745 9.73825 6.67506 9.73825C6.67506 9.73825 6.67506 9.73825 6.6745 9.73825Z" fill="#474747"/>
<path id="Vector_5" d="M17.4108 11.1382C17.2965 11.1382 17.1862 11.0917 17.1063 11.0092L15.8932 9.75114L13.5087 10.6613C13.35 10.7219 13.1704 10.6815 13.0528 10.5592C12.9351 10.4368 12.903 10.2556 12.9706 10.1007L13.8594 8.06328L12.9329 7.99482C12.7527 7.98135 12.6008 7.8551 12.5557 7.68115C12.5101 7.50664 12.5811 7.32259 12.7325 7.22384L14.1448 6.29742L13.4502 6.0668C13.229 5.99329 13.1096 5.75481 13.1834 5.53429C13.2571 5.31377 13.4963 5.19481 13.7176 5.26832L15.2374 5.77333C15.3905 5.82439 15.5014 5.95794 15.5222 6.11786C15.5431 6.27778 15.471 6.43546 15.3359 6.52411L14.2337 7.24684L14.5158 7.2676C14.652 7.2777 14.7753 7.35289 14.8462 7.46961C14.9171 7.58632 14.9267 7.72997 14.8721 7.8551L14.1471 9.51715L15.8538 8.86569C16.0125 8.80508 16.1915 8.84492 16.3092 8.96725L17.3579 10.0547L18.1904 8.85166C18.3114 8.67715 18.5439 8.61935 18.7325 8.71699L20.5929 9.68156L19.8285 7.54873C19.775 7.40003 19.8099 7.23394 19.9185 7.11891C20.0272 7.00388 20.191 6.95899 20.3435 7.00275L22.4826 7.61999C22.7066 7.68452 22.8355 7.91795 22.7708 8.14127C22.706 8.3646 22.4713 8.4931 22.2478 8.42857L20.9014 8.04027L21.7496 10.4082C21.8082 10.5709 21.7603 10.7533 21.6298 10.8667C21.4992 10.9806 21.3111 11.003 21.1575 10.9228L18.6739 9.63499L17.7598 10.9564C17.6877 11.0602 17.5729 11.127 17.4462 11.1371C17.435 11.1382 17.4232 11.1382 17.4119 11.1382H17.4108Z" fill="#474747"/>
<path id="Vector_6" d="M17.0167 5.41494C16.9757 5.41494 16.934 5.40877 16.894 5.39642L15.0747 4.84428C14.8642 4.78031 14.7387 4.56652 14.7848 4.35217L15.1805 2.53862C15.2076 2.41349 15.2909 2.308 15.4057 2.25076C15.5205 2.19409 15.6556 2.1924 15.7716 2.24627L16.9582 2.79842C17.0888 2.85958 17.1794 2.98247 17.198 3.12555L17.4355 4.93911C17.4541 5.08107 17.399 5.22248 17.2898 5.3145C17.2126 5.37959 17.1158 5.41438 17.0167 5.41438V5.41494ZM15.6928 4.15241L16.5135 4.40155L16.3908 3.46447L15.8932 3.23329L15.6928 4.15297V4.15241Z" fill="#474747"/>
<path id="Vector_7" d="M14.4859 1.31533C14.3311 1.31533 14.182 1.23004 14.1082 1.08247L13.8707 0.60944C13.7665 0.401263 13.851 0.148757 14.0592 0.0449487C14.2675 -0.0588593 14.5214 0.0253094 14.6255 0.232925L14.8625 0.705953C14.9666 0.91413 14.8822 1.16664 14.6739 1.27044C14.6131 1.30074 14.549 1.31477 14.4854 1.31477L14.4859 1.31533Z" fill="#474747"/>
<path id="Vector_8" d="M21.019 6.41987C20.9087 6.41987 20.8012 6.37666 20.7212 6.29754C20.6193 6.19654 20.576 6.05121 20.6058 5.91149L20.8878 4.59228C20.9334 4.37793 21.1361 4.23429 21.355 4.2629L22.6689 4.43236C22.7961 4.44864 22.9092 4.52214 22.9757 4.63156C23.0421 4.74098 23.055 4.87453 23.0111 4.99461L22.6903 5.8666C22.6407 6.00183 22.5248 6.10227 22.384 6.13313L21.1085 6.41089C21.0787 6.41762 21.0483 6.42043 21.0184 6.42043L21.019 6.41987ZM21.6331 5.14667L21.5684 5.44856L21.9782 5.35934L22.0373 5.19886L21.6331 5.14667Z" fill="#474747"/>
<path id="Vector_9" d="M23.7823 4.38248C23.6399 4.38248 23.5014 4.31122 23.422 4.18104C23.3004 3.98296 23.3629 3.72372 23.5616 3.60252L23.8836 3.40612C24.0823 3.28492 24.3424 3.34721 24.464 3.54528C24.5856 3.74336 24.5231 4.0026 24.3244 4.1238L24.0024 4.32019C23.9337 4.36228 23.8577 4.38192 23.7823 4.38192V4.38248Z" fill="#474747"/>
<path id="Vector_10" d="M21.2453 1.07467C21.2014 1.07467 21.1563 1.06793 21.1124 1.05334C20.8912 0.980396 20.7713 0.741919 20.8445 0.521397L20.894 0.372699C20.9672 0.152177 21.2064 0.0320963 21.4277 0.105604C21.6489 0.17855 21.7688 0.417028 21.6956 0.637549L21.6461 0.786247C21.5875 0.963001 21.4226 1.07467 21.2453 1.07467Z" fill="#474747"/>
<path id="Vector_11" d="M20.6193 2.83368C20.5749 2.83368 20.5298 2.82695 20.4859 2.8118C20.2647 2.73829 20.1454 2.49981 20.2191 2.27929L20.388 1.77428C20.4617 1.55376 20.701 1.4348 20.9222 1.50831C21.1434 1.58182 21.2627 1.82029 21.189 2.04081L21.0201 2.54583C20.961 2.72202 20.7966 2.83368 20.6199 2.83368H20.6193Z" fill="#474747"/>
</g>
<defs>
<clipPath id="clip0_104_97">
<rect width="28" height="22" fill="white" transform="translate(0.5)"/>
</clipPath>
</defs>
</svg>
