<?xml version="1.0" encoding="UTF-8" standalone="no"?> <svg width="25px" height="25px" xmlns="http://www.w3.org/2000/svg" viewBox="0 0 64 64"><g id="Layer_53" data-name="Layer 53"><path d="M57.58,10H30.84a16.39,16.39,0,0,0-12.16,5.41L5.94,29.52A11.43,11.43,0,0,0,3,37.19v7.06c0,1.55,0,4.81,0,6.38a3.42,3.42,0,0,0,3.42,3.42H57.58A3.42,3.42,0,0,0,61,50.63c0-1.59,0-4.82,0-6.38V13.37A3.42,3.42,0,0,0,57.58,10ZM7.43,30.86,20.17,16.7A14.37,14.37,0,0,1,30.84,12H57.58A1.42,1.42,0,0,1,59,13.37V43.25H5V37.19A9.43,9.43,0,0,1,7.43,30.86ZM59,46H5v-.79H59Zm-1.42,6H6.42A1.42,1.42,0,0,1,5,50.63V48H59v2.59A1.42,1.42,0,0,1,57.58,52.05Z"/><path d="M53.88,35.14h-8a2.54,2.54,0,0,0,0,5.08h8A2.54,2.54,0,0,0,53.88,35.14Zm0,3.08h-8a.54.54,0,0,1,0-1.08h8A.54.54,0,0,1,53.88,38.22Z"/><path d="M15.87,34.26c1.77,0,38.38,0,41.13,0a1,1,0,0,0,1-1V14a1,1,0,0,0-1-1H30.84a13.36,13.36,0,0,0-9.92,4.42l-7.43,8.25a3.21,3.21,0,0,0-.19.31c0,.12,0,.24-.07.36v5.32A2.65,2.65,0,0,0,15.87,34.26Zm0-2a.65.65,0,0,1-.65-.65V27.19h8.89l-.81,2.86a3.05,3.05,0,0,1-2.92,2.21ZM22.4,18.71A11.37,11.37,0,0,1,30.84,15H56V32.26H24.39c.86-.94,1.37-3.75,1.77-4.94a1.71,1.71,0,0,0-.27-1.47,1.67,1.67,0,0,0-1.34-.66h-8Z"/><path d="M37.66,24.33a1,1,0,0,0,.7-.29l3.42-3.42a1,1,0,0,0,0-1.42,1,1,0,0,0-1.41,0L37,22.62A1,1,0,0,0,37.66,24.33Z"/><path d="M44.44,23.28,41,26.7a1,1,0,0,0,1.42,1.41l3.41-3.42A1,1,0,0,0,44.44,23.28Z"/><path d="M37.35,28.66a1,1,0,0,0,.7-.29l8.12-8.12a1,1,0,0,0-1.41-1.41L36.64,27A1,1,0,0,0,37.35,28.66Z"/></g></svg>