<svg width="66" height="49" viewBox="0 0 66 49" fill="none" xmlns="http://www.w3.org/2000/svg">
<g id="Group 26">
<g id="Group">
<g id="Group_2">
<g id="Group_3">
<path id="Vector" d="M54.99 16.2352C51.9396 4.74334 39.6161 -2.23406 27.4644 0.650658C17.9681 2.90507 11.0728 10.6668 10.3623 19.9016C3.61957 20.9532 -0.94515 26.9748 0.166803 33.3514C1.15528 39.0203 6.34938 43.1718 12.4246 43.149H22.736V39.2484H12.4246C7.86876 39.2484 4.17548 35.7557 4.17548 31.4473C4.17548 27.1389 7.86876 23.6461 12.4246 23.6461C13.5636 23.6461 14.4869 22.773 14.4869 21.6958C14.4765 12.0018 22.7781 4.13533 33.0288 4.1257C41.9022 4.11729 49.5408 10.0498 51.2572 18.2828C51.4267 19.1049 52.1322 19.7329 53.0102 19.8431C58.6482 20.6023 62.5677 25.5401 61.7649 30.8718C61.044 35.6595 56.7215 39.2243 51.6078 39.2484H43.3587V43.149H51.6078C59.5806 43.1262 66.0242 36.9955 65.9999 29.4557C65.9798 23.1794 61.4371 17.7246 54.99 16.2352Z" fill="black"/>
<path id="Vector_2" d="M31.5831 24.2117L23.334 32.0129L26.2418 34.7628L30.9851 30.2966V48.9999H35.1096V30.2966L39.8322 34.7628L42.74 32.0129L34.4909 24.2117C33.6865 23.4555 32.3875 23.4555 31.5831 24.2117Z" fill="black"/>
</g>
</g>
</g>
</g>
</svg>
